# xmcd
#
# Track frame offsets:
# 150
# 18375
# 37917
# 54250
# 71000
# 91437
# 108032
# 126682
# 143527
# 159850
# 175740
# 191262
# 203952
#
# Disc length: 2977 seconds
#
#
# Revision: 0
# Processed by: cddbd v1.4PL0 Copyright (c) Steve Scherf et al.
# Submitted via: FreeRIP 2.12 
#
DISCID=a40b9f0d
DTITLE=Lisa - Finally (1st)
DYEAR=2003
DGENRE=R&B
TTITLE0=Yesterday Once More
TTITLE1=사랑하긴 했었나요
TTITLE2=그자리
TTITLE3=Tonight
TTITLE4=다 괜찮아요
TTITLE5=JUST2BWITU (Featuring Annie)
TTITLE6=나무
TTITLE7=벙어리
TTITLE8=Feel It
TTITLE9=다시
TTITLE10=Tonight (MI Master Mix)
TTITLE11=Thank you
TTITLE12=사랑하긴 했었나요 [오케스트라버전]
EXTD=
EXTT0=
EXTT1=
EXTT2=
EXTT3=
EXTT4=
EXTT5=
EXTT6=
EXTT7=
EXTT8=
EXTT9=
EXTT10=
EXTT11=
EXTT12=
PLAYORDER=
